<?xml version="1.0" standalone="no"?>
<!DOCTYPE svg PUBLIC "-//W3C//DTD SVG 20010904//EN"
 "http://www.w3.org/TR/2001/REC-SVG-20010904/DTD/svg10.dtd">
<svg version="1.0" xmlns="http://www.w3.org/2000/svg"
 width="1024.000000pt" height="1024.000000pt" viewBox="0 0 1024.000000 1024.000000"
 preserveAspectRatio="xMidYMid meet">

<g transform="translate(0.000000,1024.000000) scale(0.100000,-0.100000)"
fill="#000000" stroke="none">
<path d="M0 5120 l0 -5120 5120 0 5120 0 0 5120 0 5120 -5120 0 -5120 0 0
-5120z m5296 1218 c59 -84 151 -214 205 -288 53 -74 130 -186 172 -247 76
-114 113 -150 276 -265 l43 -30 104 103 c57 57 105 101 107 98 11 -14 192
-277 237 -344 42 -64 116 -140 364 -376 445 -424 831 -782 1003 -929 61 -52
110 -96 108 -98 -2 -2 -20 4 -41 13 -67 28 -496 182 -571 205 -72 22 -74 23
-155 118 -121 144 -309 327 -428 417 -57 44 -120 96 -139 115 -18 19 -78 116
-131 215 -112 207 -207 376 -220 389 -8 8 -120 -52 -203 -110 -26 -19 -50 -34
-53 -34 -4 0 -37 24 -73 54 -59 47 -120 86 -136 86 -7 0 -6 -145 1 -190 4 -25
59 -104 192 -279 l187 -244 107 -27 c59 -15 113 -32 120 -38 7 -6 45 -40 83
-77 39 -36 106 -95 150 -129 84 -67 92 -80 182 -295 l14 -34 -41 34 c-183 151
-301 219 -452 263 l-88 25 -177 157 c-346 307 -473 450 -564 634 l-48 96 11
183 c13 211 25 168 -107 371 -45 69 -103 158 -129 199 -27 42 -51 70 -56 65
-5 -5 -25 -67 -46 -139 -36 -129 -37 -131 -98 -193 -40 -41 -83 -73 -124 -93
-54 -25 -68 -38 -101 -90 -35 -55 -46 -65 -102 -88 -60 -25 -67 -31 -123 -116
-74 -113 -193 -283 -220 -312 -16 -19 -30 -23 -81 -23 l-61 0 -74 -147 c-69
-138 -86 -162 -248 -358 -267 -322 -322 -385 -340 -385 -10 0 -80 -7 -157 -14
-177 -18 -299 -48 -801 -201 -103 -32 -120 -31 -64 3 152 93 405 263 532 358
89 67 196 125 393 213 39 17 81 44 95 60 14 16 113 132 220 257 107 126 262
306 343 401 91 105 153 171 160 166 7 -3 33 -21 58 -40 26 -18 52 -33 58 -33
6 0 18 12 28 28 71 110 249 337 383 488 30 34 102 137 159 230 58 93 128 205
156 249 29 44 57 90 64 103 6 12 16 22 20 22 5 0 58 -69 117 -152z m-135 -763
c-10 -117 -38 -317 -56 -391 -8 -35 -156 -212 -261 -315 -161 -155 -330 -282
-539 -404 -108 -63 -417 -217 -423 -210 -2 2 16 41 39 86 35 66 62 99 134 165
50 46 122 108 160 137 56 42 85 75 146 165 54 81 91 124 130 153 68 50 93 79
177 203 56 83 81 110 164 173 108 83 183 164 272 296 33 48 61 85 64 83 2 -3
-1 -66 -7 -141z m104 -681 l-6 -140 48 -95 c97 -189 224 -326 485 -523 43 -32
98 -81 123 -109 51 -58 120 -156 114 -161 -2 -2 -40 21 -84 50 -44 30 -161
104 -260 163 -321 192 -380 239 -450 356 -19 33 -43 83 -52 112 -9 29 -19 53
-23 53 -3 0 -22 -21 -41 -46 -40 -54 -198 -184 -319 -263 -112 -73 -282 -159
-417 -211 -115 -44 -309 -103 -323 -98 -4 2 38 32 93 67 142 90 340 221 417
277 339 244 549 485 651 745 l34 86 8 -61 c4 -34 5 -124 2 -202z"/>
</g>
</svg>
